<?xml version="1.0" encoding="utf-8"?>
<!-- Generator: Adobe Illustrator 25.0.0, SVG Export Plug-In . SVG Version: 6.00 Build 0)  -->
<svg version="1.1" id="Calque_1" xmlns="http://www.w3.org/2000/svg" xmlns:xlink="http://www.w3.org/1999/xlink" x="0px" y="0px"
	 viewBox="0 0 7789.1 1830.7" style="enable-background:new 0 0 7789.1 1830.7;" xml:space="preserve">
<style type="text/css">
	.st0{fill:#343131;}
	.st1{fill:#343131;stroke:#000000;stroke-miterlimit:10;}
</style>
<path class="st0" d="M1184.6,215.4V1400c0,29.7-24.1,53.8-53.8,53.8h-53.8c-89.2,0-161.5-72.3-161.5-161.5V344.6
	c0-41.6-33.8-75.4-75.4-75.4H161.5C72.3,269.2,0,196.9,0,107.7V53.8C0,24.1,24.1,0,53.8,0h915.4C1088.2,0,1184.6,96.4,1184.6,215.4z
	"/>
<path class="st0" d="M1615.4,1723.1v53.8c0,29.7-24.1,53.8-53.8,53.8H215.4c-119,0-215.4-96.4-215.4-215.4V430.8
	c0-29.7,24.1-53.8,53.8-53.8h53.8c89.2,0,161.5,72.3,161.5,161.5v947.7c0,41.6,33.8,75.4,75.4,75.4h1109.2
	C1543,1561.5,1615.4,1633.8,1615.4,1723.1z"/>
<path class="st0" d="M2471.1,215.4v481c0,89.2-72.3,161.5-161.5,161.5h-53.8c-29.7,0-53.8-24.1-53.8-53.8V344.6
	c0-41.6-33.8-75.4-75.4-75.4h-491.3c-41.6,0-75.4,33.8-75.4,75.4v947.7c0,89.2-72.3,161.5-161.5,161.5h-53.8
	c-29.7,0-53.8-24.1-53.8-53.8V215.4C1290.6,96.4,1387.1,0,1506,0h749.7C2374.7,0,2471.1,96.4,2471.1,215.4z"/>
<path class="st0" d="M2471.1,1179.3v597.6c0,29.7-24.1,53.8-53.8,53.8h-53.8c-89.2,0-161.5-72.3-161.5-161.5v-360.6
	c0-41.6-33.8-75.4-75.4-75.4h-299.1c-89.2,0-161.5-72.3-161.5-161.5v-53.8c0-29.7,24.1-53.8,53.8-53.8h536
	C2374.7,964,2471.1,1060.4,2471.1,1179.3z"/>
<path class="st1" d="M5427.7,1830.7h-53.8c-29.7,0-53.8-24.1-53.8-53.8V53.8c0-29.7,24.1-53.8,53.8-53.8h53.8
	c89.2,0,161.5,72.3,161.5,161.5v1507.7C5589.2,1758.4,5516.9,1830.7,5427.7,1830.7z"/>
<path class="st1" d="M6502.6,215.4v1400c0,119-96.4,215.4-215.4,215.4l-538.1,0c-29.7,0-53.8-24.1-53.8-53.8V1723
	c0-89.2,72.3-161.5,161.5-161.5l301.2,0c41.6,0,75.4-33.8,75.4-75.4V344.6c0-41.6-33.8-75.4-75.4-75.4l-301.1,0
	c-89.2,0-161.5-72.3-161.5-161.5V53.8c0-29.7,24.1-53.8,53.8-53.8l538.1,0C6406.1,0,6502.6,96.4,6502.6,215.4z"/>
<path class="st1" d="M6608.6,215.4v1400c0,119,96.4,215.4,215.4,215.4h911.3c29.7,0,53.8-24.1,53.8-53.8V1723
	c0-89.2-72.3-161.5-161.5-161.5h-674.4c-41.6,0-75.4-33.8-75.4-75.4V344.6c0-41.6,33.8-75.4,75.4-75.4h674.4
	c89.2,0,161.5-72.3,161.5-161.5V53.8c0-29.7-24.1-53.8-53.8-53.8H6824C6705,0,6608.6,96.4,6608.6,215.4z"/>
<path class="st1" d="M5210.5,1723.1v53.8c0,29.7-24.1,53.8-53.8,53.8h-911.3c-119,0-215.4-96.4-215.4-215.4V429.1
	c0-29.7,24.1-53.8,53.8-53.8h53.9c89.2,0,161.5,72.3,161.5,161.5v949.3c0,41.6,33.8,75.4,75.4,75.4H5049
	C5138.2,1561.5,5210.5,1633.8,5210.5,1723.1z"/>
<path class="st1" d="M3920.9,1723.1v53.8c0,29.7-24.1,53.8-53.8,53.8h-911.3c-119,0-215.4-96.4-215.4-215.4V429.1
	c0-29.7,24.1-53.8,53.8-53.8h53.8c89.2,0,161.5,72.3,161.5,161.5v949.3c0,41.6,33.8,75.4,75.4,75.4h674.4
	C3848.5,1561.5,3920.9,1633.8,3920.9,1723.1z"/>
<path class="st1" d="M5210.5,215.4v1186.3c0,29.7-24.1,53.8-53.8,53.8h-53.8c-89.2,0-161.5-72.3-161.5-161.5V344.6
	c0-41.6-33.8-75.4-75.4-75.4h-674.4c-89.2,0-161.5-72.3-161.5-161.5V53.8c0-29.7,24.1-53.8,53.8-53.8h911.3
	C5114.1,0,5210.5,96.4,5210.5,215.4z"/>
<path class="st1" d="M3920.9,53.8v53.8c0,89.2-72.3,161.5-161.5,161.5h-857.4c-89.2,0-161.5-72.3-161.5-161.5V53.8
	c0-29.7,24.1-53.8,53.8-53.8H3867C3896.8,0,3920.9,24.1,3920.9,53.8z"/>
<path class="st1" d="M7675.7,1050h-579.3c-62.6,0-113.4-50.8-113.4-113.4v-42.5c0-62.6,50.8-113.4,113.4-113.4h579.3
	c62.6,0,113.4,50.8,113.4,113.4v42.5C7789.1,999.2,7738.4,1050,7675.7,1050z"/>
</svg>
