<svg xmlns="http://www.w3.org/2000/svg" viewBox="0 0 500 500"><g id="freepik--background-complete--inject-32"><path d="M414.79,343.67l13.36-.27,6.58-.12c2.19,0,4.36,0,6.54,0l-.44.44-.06-11.18.5.49L428,332.92c-4.41,0-8.82-.11-13.24-.16l.28-.27c0,1.83-.09,3.67-.14,5.53Zm0,0-.14-5.53c0-1.87-.11-3.76-.13-5.65v-.27h.27c4.42,0,8.83-.16,13.24-.16l13.24-.06h.5v.51l0,11.18v.45h-.45c-2.23,0-4.47,0-6.69-.05l-6.66-.12Z" style="fill:#ebebeb"></path><path d="M429.56,357.78l13.36-.27,6.58-.12c2.19,0,4.36,0,6.54-.05l-.44.44-.05-11.18.49.49L442.8,347c-4.41,0-8.82-.11-13.24-.16l.28-.27c0,1.83-.09,3.67-.13,5.53Zm0,0-.14-5.53c0-1.87-.11-3.76-.13-5.65v-.27h.27c4.42-.05,8.83-.16,13.24-.16L456,346.1h.51v.51l-.05,11.18v.45H456c-2.23,0-4.46,0-6.69-.05l-6.66-.12Z" style="fill:#ebebeb"></path><rect x="400.02" y="346.59" width="26.48" height="11.19" transform="translate(826.52 704.38) rotate(180)" style="fill:#ebebeb"></rect><path d="M312.24,128.35l13.35-.28,6.58-.11c2.19,0,4.37,0,6.55-.06l-.45.45,0-11.19.5.5-13.24-.07c-4.42,0-8.83-.11-13.24-.16l.27-.27c0,1.83-.09,3.67-.13,5.53Zm0,0-.15-5.54c0-1.87-.11-3.76-.13-5.65v-.27h.28c4.41,0,8.82-.16,13.24-.16l13.24-.06h.5v.51l-.06,11.19v.45h-.44c-2.23,0-4.47,0-6.7,0l-6.66-.12Z" style="fill:#ebebeb"></path><path d="M327,142.46l13.35-.28,6.58-.11c2.19,0,4.37,0,6.55-.06l-.45.45L353,131.27l.5.5-13.24-.07c-4.41,0-8.83-.11-13.24-.16l.27-.27c0,1.83-.08,3.67-.13,5.53Zm0,0-.14-5.54c-.05-1.87-.12-3.76-.13-5.65V131H327c4.41-.05,8.83-.16,13.24-.16l13.24-.06h.5v.51l-.06,11.19v.44h-.44c-2.23,0-4.47,0-6.7-.05l-6.66-.12Z" style="fill:#ebebeb"></path><rect x="297.46" y="131.27" width="26.48" height="11.19" transform="translate(621.41 273.72) rotate(180)" style="fill:#ebebeb"></rect><rect x="58.73" y="346.59" width="26.48" height="11.19" transform="translate(143.93 704.38) rotate(180)" style="fill:#ebebeb"></rect><rect x="58.73" y="44.58" width="26.48" height="11.19" transform="translate(143.93 100.34) rotate(180)" style="fill:#ebebeb"></rect><path d="M44,69.88l13.35-.28,6.58-.12c2.19,0,4.36,0,6.55,0l-.45.45,0-11.19.5.49L57.2,59.12C52.78,59.12,48.37,59,44,59l.27-.27c0,1.83-.09,3.67-.13,5.53Zm0,0-.15-5.54c0-1.87-.11-3.76-.13-5.65v-.27H44c4.41,0,8.82-.16,13.24-.16l13.24-.06h.5v.51l-.06,11.19v.44h-.44c-2.24,0-4.47,0-6.7,0l-6.66-.12Z" style="fill:#ebebeb"></path><path d="M429.56,55.78l13.36-.28,6.58-.11c2.19,0,4.36,0,6.54-.06l-.44.45-.05-11.19.49.5L442.8,45c-4.41,0-8.82-.11-13.24-.16l.28-.27c0,1.83-.09,3.67-.13,5.53Zm0,0-.14-5.54c0-1.87-.11-3.75-.13-5.65v-.27h.27c4.42-.05,8.83-.15,13.24-.16L456,44.09h.51v.5l-.05,11.19v.45H456c-2.23,0-4.46,0-6.69,0l-6.66-.11Z" style="fill:#ebebeb"></path><rect x="255.8" y="305.21" width="26.48" height="11.19" style="fill:#ebebeb"></rect><path d="M267.51,291.1l-13.36.28-6.57.11c-2.19.05-4.37,0-6.55.05l.45-.44.05,11.19-.5-.5,13.24.06c4.41,0,8.83.11,13.24.17l-.27.27c0-1.83.08-3.68.13-5.54Zm0,0,.14,5.53c.05,1.87.11,3.76.13,5.66v.27h-.28c-4.41.05-8.83.16-13.24.16l-13.24.07h-.5v-.5l.05-11.19v-.45H241c2.23,0,4.47,0,6.69.06l6.67.11Z" style="fill:#ebebeb"></path><rect x="44.45" y="125.92" width="182.8" height="135.67" style="fill:#fff"></rect><path d="M227.75,262.09H44V125.42h183.8Zm-182.8-1h181.8V126.42H45Z" style="fill:#ebebeb"></path><rect x="44.45" y="137.45" width="182.8" height="1" style="fill:#ebebeb"></rect><path d="M54,131.78a2.31,2.31,0,1,1-2.31-2.31A2.3,2.3,0,0,1,54,131.78Z" style="fill:#c7c7c7"></path><path d="M63.38,131.78a2.31,2.31,0,1,1-2.31-2.31A2.31,2.31,0,0,1,63.38,131.78Z" style="fill:#dbdbdb"></path><path d="M72.79,131.78a2.31,2.31,0,1,1-2.3-2.31A2.3,2.3,0,0,1,72.79,131.78Z" style="fill:#ebebeb"></path><rect x="139.8" y="215.82" width="182.8" height="11.67" style="fill:#ebebeb"></rect><path d="M149.31,221.68a2.31,2.31,0,1,1-2.3-2.31A2.31,2.31,0,0,1,149.31,221.68Z" style="fill:#c7c7c7"></path><path d="M158.73,221.68a2.31,2.31,0,1,1-2.31-2.31A2.31,2.31,0,0,1,158.73,221.68Z" style="fill:#fff"></path><path d="M168.15,221.68a2.31,2.31,0,1,1-2.31-2.31A2.32,2.32,0,0,1,168.15,221.68Z" style="fill:#296882"></path><rect x="139.8" y="227.5" width="182.8" height="123.67" style="fill:#c7c7c7"></rect><path d="M221.9,298.63a13.15,13.15,0,1,1,18.6,0A13.16,13.16,0,0,1,221.9,298.63Z" style="fill:#ebebeb"></path><polygon points="226.65 294.46 226.65 284.2 237.19 289.33 226.65 294.46" style="fill:#fff"></polygon><path d="M297.64,341.13H163.44a.86.86,0,1,0,0,1.72h134.2a.86.86,0,0,0,0-1.72Z" style="fill:#fff"></path><path d="M163.44,341.13a.86.86,0,1,0,0,1.72h68.09v-1.72Z" style="fill:#ebebeb"></path><path d="M229.81,342a1.72,1.72,0,1,1,1.72,1.72A1.72,1.72,0,0,1,229.81,342Z" style="fill:#ebebeb"></path><polygon points="311.8 339.21 311.8 340 311.8 341.71 312.59 341.71 312.59 340 314.3 340 314.3 339.21 312.59 339.21 311.8 339.21" style="fill:#fff"></polygon><polygon points="316.95 339.21 315.24 339.21 315.24 340 316.95 340 316.95 341.71 317.74 341.71 317.74 340 317.74 339.21 316.95 339.21" style="fill:#fff"></polygon><polygon points="316.95 344.2 315.24 344.2 315.24 344.99 316.95 344.99 317.74 344.99 317.74 344.2 317.74 342.49 316.95 342.49 316.95 344.2" style="fill:#fff"></polygon><polygon points="312.59 342.49 311.8 342.49 311.8 344.2 311.8 344.99 312.59 344.99 314.3 344.99 314.3 344.2 312.59 344.2 312.59 342.49" style="fill:#fff"></polygon><polygon points="146.06 339.49 146.06 344.5 150.1 341.99 146.06 339.49" style="fill:#fff"></polygon><path d="M152.29,342.06a1,1,0,0,1,.16-.56.53.53,0,0,1,.44-.27.52.52,0,0,1,.44.27.93.93,0,0,1,.16.56,1,1,0,0,1-.16.57.54.54,0,0,1-.44.27.56.56,0,0,1-.44-.27A1,1,0,0,1,152.29,342.06Zm.94,0a.84.84,0,0,0-.11-.42.26.26,0,0,0-.23-.14c-.07,0-.15,0-.22.14a.75.75,0,0,0-.12.42.81.81,0,0,0,.12.43.25.25,0,0,0,.45,0A.91.91,0,0,0,153.23,342.06Z" style="fill:#fff"></path><path d="M154,342.06a1,1,0,0,1,.17-.56.52.52,0,0,1,.44-.27.53.53,0,0,1,.44.27,1,1,0,0,1,.16.56,1,1,0,0,1-.16.57.56.56,0,0,1-.44.27.54.54,0,0,1-.44-.27A1,1,0,0,1,154,342.06Zm1,0a.75.75,0,0,0-.12-.42c-.07-.1-.15-.15-.22-.14a.27.27,0,0,0-.23.14.84.84,0,0,0-.11.42.91.91,0,0,0,.11.43.29.29,0,0,0,.23.14.28.28,0,0,0,.22-.14A.81.81,0,0,0,154.93,342.06Z" style="fill:#fff"></path><path d="M155.91,341.61a.18.18,0,1,1-.18.18A.18.18,0,0,1,155.91,341.61Zm0,.95a.18.18,0,0,1,.18.18.18.18,0,0,1-.36,0A.18.18,0,0,1,155.91,342.56Z" style="fill:#fff"></path><path d="M156.25,342.06a1.09,1.09,0,0,1,.16-.56.55.55,0,0,1,.45-.27.53.53,0,0,1,.44.27,1,1,0,0,1,.16.56,1,1,0,0,1-.16.57.56.56,0,0,1-.44.27.57.57,0,0,1-.45-.27A1.12,1.12,0,0,1,156.25,342.06Zm.94,0a.75.75,0,0,0-.11-.42c-.07-.1-.15-.15-.22-.14a.26.26,0,0,0-.23.14.84.84,0,0,0-.11.42.91.91,0,0,0,.11.43.25.25,0,0,0,.45,0A.81.81,0,0,0,157.19,342.06Z" style="fill:#fff"></path><path d="M158,342.06a1,1,0,0,1,.16-.56.49.49,0,0,1,.88,0,.93.93,0,0,1,.16.56,1,1,0,0,1-.16.57.49.49,0,0,1-.88,0A1,1,0,0,1,158,342.06Zm.94,0a.75.75,0,0,0-.12-.42.24.24,0,0,0-.22-.14c-.07,0-.15,0-.22.14a.75.75,0,0,0-.12.42.81.81,0,0,0,.12.43.28.28,0,0,0,.22.14.25.25,0,0,0,.22-.14A.81.81,0,0,0,158.89,342.06Z" style="fill:#fff"></path><path d="M302.19,342.06a.93.93,0,0,1,.16-.56.49.49,0,0,1,.88,0,1,1,0,0,1,.16.56,1,1,0,0,1-.16.57.49.49,0,0,1-.88,0A1,1,0,0,1,302.19,342.06Zm.94,0a.75.75,0,0,0-.12-.42c-.07-.1-.15-.15-.22-.14s-.15,0-.22.14a.75.75,0,0,0-.12.42.81.81,0,0,0,.12.43.24.24,0,0,0,.44,0A.81.81,0,0,0,303.13,342.06Z" style="fill:#fff"></path><path d="M304.76,341.89a.55.55,0,0,1,.17.42.58.58,0,0,1-.17.41.58.58,0,0,1-.42.18h0a.55.55,0,0,1-.41-.18.12.12,0,0,1,0-.19.14.14,0,0,1,.19,0,.28.28,0,0,0,.22.1.3.3,0,0,0,.23-.1.32.32,0,0,0,.1-.22.33.33,0,0,0-.1-.23.28.28,0,0,0-.23-.09.27.27,0,0,0-.22.09.14.14,0,0,1-.19,0l0,0h0v0h0s0,0,0,0l.07-.62a.21.21,0,0,1,.06-.1h0l.07,0h.7a.13.13,0,0,1,.13.14.13.13,0,0,1-.13.13h-.59l0,.24.16,0A.58.58,0,0,1,304.76,341.89Z" style="fill:#fff"></path><path d="M305.56,341.61a.18.18,0,0,1,0,.36.18.18,0,0,1,0-.36Zm0,.95a.18.18,0,0,1,.17.18.18.18,0,0,1-.17.17.18.18,0,0,1-.18-.17A.18.18,0,0,1,305.56,342.56Z" style="fill:#fff"></path><path d="M306.8,341.88a.59.59,0,0,1-.42,1,.58.58,0,0,1-.41-.17.12.12,0,0,1,0-.19.14.14,0,0,1,.19,0,.31.31,0,0,0,.22.09.32.32,0,0,0,.23-.09.3.3,0,0,0,.1-.23.34.34,0,0,0-.32-.32.12.12,0,0,1-.1,0h0a.13.13,0,0,1,0-.19l.24-.24h-.38a.14.14,0,0,1-.14-.14.13.13,0,0,1,.14-.13h.7a.13.13,0,0,1,.14.13.19.19,0,0,1,0,.07l0,0-.3.31A.57.57,0,0,1,306.8,341.88Z" style="fill:#fff"></path><path d="M308.22,341.89a.56.56,0,0,1,.18.42.62.62,0,0,1-.59.59h0a.55.55,0,0,1-.41-.18.12.12,0,0,1,0-.19.14.14,0,0,1,.19,0,.29.29,0,0,0,.23.1.28.28,0,0,0,.22-.1.32.32,0,0,0,.1-.22.29.29,0,0,0-.1-.23.27.27,0,0,0-.22-.09.29.29,0,0,0-.23.09.14.14,0,0,1-.19,0l0,0h0a0,0,0,0,0,0,0v0h0v0l.07-.62a.21.21,0,0,1,.06-.1h0l.06,0h.7a.14.14,0,0,1,.14.14.13.13,0,0,1-.14.13h-.58l0,.24a.41.41,0,0,1,.16,0A.55.55,0,0,1,308.22,341.89Z" style="fill:#fff"></path><path d="M296.62,240.46a4.18,4.18,0,0,1-1.21.5,4.17,4.17,0,0,1-2-8.1,4.17,4.17,0,0,1,3.19,7.6Z" style="fill:#a6a6a6"></path><path d="M295.69,236.43a1.27,1.27,0,1,1-1.27-1.27A1.27,1.27,0,0,1,295.69,236.43Z" style="fill:#fff"></path><path d="M296.62,239.93v.53a4.18,4.18,0,0,1-1.21.5,4.12,4.12,0,0,1-3.18-.5v-.53a2.2,2.2,0,0,1,4.39,0Z" style="fill:#fff"></path><rect x="307.92" y="233.7" width="5.56" height="1.1" style="fill:#a6a6a6"></rect><rect x="307.92" y="235.91" width="5.56" height="1.09" style="fill:#a6a6a6"></rect><rect x="307.92" y="238.13" width="5.56" height="1.09" style="fill:#a6a6a6"></rect><rect x="148.92" y="234.42" width="110.37" height="2.4" style="fill:#a6a6a6"></rect><rect x="148.92" y="239.18" width="49.67" height="1.88" style="fill:#ebebeb"></rect></g><g id="freepik--Screen--inject-32"><rect x="78.26" y="43.23" width="343.48" height="212.35" style="fill:#fff"></rect><path d="M422,255.83H78V43H422Zm-343.48-.5h343V43.48h-343Z" style="fill:#c7c7c7"></path><rect x="78.26" y="43.23" width="343.48" height="9.55" style="fill:#37474f"></rect><path d="M86.33,48A2.31,2.31,0,1,1,84,45.7,2.3,2.3,0,0,1,86.33,48Z" style="fill:#c7c7c7"></path><path d="M95.75,48a2.31,2.31,0,1,1-2.31-2.31A2.3,2.3,0,0,1,95.75,48Z" style="fill:#fff"></path><path d="M105.16,48a2.31,2.31,0,1,1-2.3-2.31A2.3,2.3,0,0,1,105.16,48Z" style="fill:#296882"></path><polygon points="160.92 140.77 113.13 140.77 113.13 78.34 149.16 78.34 160.92 90.1 160.92 140.77" style="fill:#296882"></polygon><polygon points="160.92 140.77 113.13 140.77 113.13 78.34 149.16 78.34 160.92 90.1 160.92 140.77" style="fill:#fff;opacity:0.6000000000000001"></polygon><polygon points="160.92 90.1 149.16 90.1 149.16 78.34 160.92 90.1" style="fill:#296882"></polygon><rect x="121.7" y="95.82" width="30.64" height="21.5" style="fill:#296882"></rect><polygon points="132.26 101.67 132.26 111.47 143.45 106.57 132.26 101.67" style="fill:#fff"></polygon><rect x="123.21" y="97.32" width="1.67" height="1.15" style="fill:#fff"></rect><rect x="123.21" y="99.8" width="1.67" height="1.15" style="fill:#fff"></rect><rect x="123.21" y="102.28" width="1.67" height="1.15" style="fill:#fff"></rect><rect x="123.21" y="104.76" width="1.67" height="1.15" style="fill:#fff"></rect><rect x="123.21" y="107.23" width="1.67" height="1.15" style="fill:#fff"></rect><rect x="123.21" y="109.71" width="1.67" height="1.15" style="fill:#fff"></rect><rect x="123.21" y="112.19" width="1.67" height="1.15" style="fill:#fff"></rect><rect x="123.21" y="114.67" width="1.67" height="1.15" style="fill:#fff"></rect><rect x="149.17" y="97.32" width="1.67" height="1.15" style="fill:#fff"></rect><rect x="149.17" y="99.8" width="1.67" height="1.15" style="fill:#fff"></rect><rect x="149.17" y="102.28" width="1.67" height="1.15" style="fill:#fff"></rect><rect x="149.17" y="104.76" width="1.67" height="1.15" style="fill:#fff"></rect><rect x="149.17" y="107.23" width="1.67" height="1.15" style="fill:#fff"></rect><rect x="149.17" y="109.71" width="1.67" height="1.15" style="fill:#fff"></rect><rect x="149.17" y="112.19" width="1.67" height="1.15" style="fill:#fff"></rect><rect x="149.17" y="114.67" width="1.67" height="1.15" style="fill:#fff"></rect><rect x="101.52" y="120.94" width="34.33" height="14.21" style="fill:#455a64"></rect><path d="M109.87,130.31a.82.82,0,1,1,0,1.64.82.82,0,0,1,0-1.64Z" style="fill:#fff"></path><path d="M115.76,130.05h-2.68l-.53,1.43a.61.61,0,0,1-.58.39.76.76,0,0,1-.21,0,.64.64,0,0,1-.36-.8l2.43-6.48a.62.62,0,0,1,.59-.38.6.6,0,0,1,.58.38l2.43,6.48a.63.63,0,0,1-.36.8.66.66,0,0,1-.21,0,.58.58,0,0,1-.56-.39Zm-.45-1.21-.89-2.36-.9,2.36Z" style="fill:#fff"></path><path d="M120.46,131.76l-.08-.06s0,0,0,0a.18.18,0,0,1-.05-.07h0a.35.35,0,0,0,0-.08l-2.7-6.43a.59.59,0,0,1,.33-.78.61.61,0,0,1,.79.32l2.14,5.09,2.15-5.09a.61.61,0,0,1,1.12.46l-2.72,6.43a.3.3,0,0,1,0,.08h0l-.06.07,0,0s0,0-.07.06h0l-.09.06h0l-.09,0h-.26l-.09,0h0l-.1-.07Z" style="fill:#fff"></path><path d="M125.73,124.77a.6.6,0,0,1,.61-.6.6.6,0,0,1,.61.6v6.49a.61.61,0,0,1-.61.61.61.61,0,0,1-.61-.61Z" style="fill:#fff"></path><rect x="172.79" y="72.66" width="74.65" height="74.65" style="fill:#296882;opacity:0.2"></rect><polygon points="238.77 140.77 190.98 140.77 190.98 78.34 227.01 78.34 238.77 90.1 238.77 140.77" style="fill:#455a64"></polygon><polygon points="238.77 90.1 227.01 90.1 227.01 78.34 238.77 90.1" style="fill:#37474f"></polygon><rect x="199.56" y="95.82" width="30.64" height="21.5" style="fill:#263238"></rect><polygon points="210.12 101.67 210.12 111.47 221.3 106.57 210.12 101.67" style="fill:#fff"></polygon><rect x="201.06" y="97.32" width="1.67" height="1.15" style="fill:#fff"></rect><rect x="201.06" y="99.8" width="1.67" height="1.15" style="fill:#fff"></rect><rect x="201.06" y="102.28" width="1.67" height="1.15" style="fill:#fff"></rect><rect x="201.06" y="104.76" width="1.67" height="1.15" style="fill:#fff"></rect><rect x="201.06" y="107.23" width="1.67" height="1.15" style="fill:#fff"></rect><rect x="201.06" y="109.71" width="1.67" height="1.15" style="fill:#fff"></rect><rect x="201.06" y="112.19" width="1.67" height="1.15" style="fill:#fff"></rect><rect x="201.06" y="114.67" width="1.67" height="1.15" style="fill:#fff"></rect><rect x="227.02" y="97.32" width="1.67" height="1.15" style="fill:#fff"></rect><rect x="227.02" y="99.8" width="1.67" height="1.15" style="fill:#fff"></rect><rect x="227.02" y="102.28" width="1.67" height="1.15" style="fill:#fff"></rect><rect x="227.02" y="104.76" width="1.67" height="1.15" style="fill:#fff"></rect><rect x="227.02" y="107.23" width="1.67" height="1.15" style="fill:#fff"></rect><rect x="227.02" y="109.71" width="1.67" height="1.15" style="fill:#fff"></rect><rect x="227.02" y="112.19" width="1.67" height="1.15" style="fill:#fff"></rect><rect x="227.02" y="114.67" width="1.67" height="1.15" style="fill:#fff"></rect><rect x="179.37" y="120.94" width="34.33" height="14.21" style="fill:#263238"></rect><path d="M183.33,130.31a.82.82,0,1,1,0,1.64.82.82,0,0,1,0-1.64Z" style="fill:#fff"></path><path d="M191.92,124.77v6.49a.63.63,0,0,1-.62.61.61.61,0,0,1-.61-.61v-4.63l-1.58,2.2a.59.59,0,0,1-.49.26h0a.61.61,0,0,1-.5-.26l-1.58-2.2v4.63a.61.61,0,0,1-.61.61.62.62,0,0,1-.61-.61v-6.49a.61.61,0,0,1,.61-.6h0a.59.59,0,0,1,.48.25l2.19,3,2.19-3a.62.62,0,0,1,.5-.25h0A.63.63,0,0,1,191.92,124.77Z" style="fill:#fff"></path><path d="M200.16,125.12a4.07,4.07,0,0,1,1.11,2.79,4,4,0,0,1-1.11,2.78,3.59,3.59,0,0,1-2.63,1.18,3.69,3.69,0,0,1-2.69-1.18,4,4,0,0,1-1.09-2.78,4,4,0,0,1,1.09-2.79,3.68,3.68,0,0,1,2.69-1.17A3.59,3.59,0,0,1,200.16,125.12Zm-.14,2.79a2.88,2.88,0,0,0-.75-1.93,2.38,2.38,0,0,0-3.52,0,2.83,2.83,0,0,0-.75,1.93,2.74,2.74,0,0,0,.75,1.91,2.36,2.36,0,0,0,3.52,0A2.79,2.79,0,0,0,200,127.91Z" style="fill:#fff"></path><path d="M205.51,131.76l-.07-.06s0,0,0,0a.18.18,0,0,1,0-.07h0a.21.21,0,0,0-.06-.08l-2.69-6.43a.58.58,0,0,1,.33-.78.59.59,0,0,1,.78.32l2.14,5.09,2.15-5.09a.61.61,0,0,1,1.12.46l-2.72,6.43a.3.3,0,0,1,0,.08h0s0,.05-.06.07l0,0-.06.06h0l-.08.06h0l-.08,0h-.27l-.09,0h0l-.1-.07Z" style="fill:#fff"></path><polygon points="316.63 140.77 268.83 140.77 268.83 78.34 304.87 78.34 316.63 90.1 316.63 140.77" style="fill:#296882"></polygon><polygon points="316.63 140.77 268.83 140.77 268.83 78.34 304.87 78.34 316.63 90.1 316.63 140.77" style="fill:#fff;opacity:0.6000000000000001"></polygon><polygon points="316.63 90.1 304.87 90.1 304.87 78.34 316.63 90.1" style="fill:#296882"></polygon><rect x="277.41" y="95.82" width="30.64" height="21.5" style="fill:#296882"></rect><polygon points="287.97 101.67 287.97 111.47 299.16 106.57 287.97 101.67" style="fill:#fff"></polygon><rect x="278.92" y="97.32" width="1.67" height="1.15" style="fill:#fff"></rect><rect x="278.92" y="99.8" width="1.67" height="1.15" style="fill:#fff"></rect><rect x="278.92" y="102.28" width="1.67" height="1.15" style="fill:#fff"></rect><rect x="278.92" y="104.76" width="1.67" height="1.15" style="fill:#fff"></rect><rect x="278.92" y="107.23" width="1.67" height="1.15" style="fill:#fff"></rect><rect x="278.92" y="109.71" width="1.67" height="1.15" style="fill:#fff"></rect><rect x="278.92" y="112.19" width="1.67" height="1.15" style="fill:#fff"></rect><rect x="278.92" y="114.67" width="1.67" height="1.15" style="fill:#fff"></rect><rect x="304.88" y="97.32" width="1.67" height="1.15" style="fill:#fff"></rect><rect x="304.88" y="99.8" width="1.67" height="1.15" style="fill:#fff"></rect><rect x="304.88" y="102.28" width="1.67" height="1.15" style="fill:#fff"></rect><rect x="304.88" y="104.76" width="1.67" height="1.15" style="fill:#fff"></rect><rect x="304.88" y="107.23" width="1.67" height="1.15" style="fill:#fff"></rect><rect x="304.88" y="109.71" width="1.67" height="1.15" style="fill:#fff"></rect><rect x="304.88" y="112.19" width="1.67" height="1.15" style="fill:#fff"></rect><rect x="304.88" y="114.67" width="1.67" height="1.15" style="fill:#fff"></rect><rect x="257.23" y="120.94" width="34.33" height="14.21" style="fill:#455a64"></rect><path d="M262.94,130.31a.82.82,0,1,1-.82.82A.82.82,0,0,1,262.94,130.31Z" style="fill:#fff"></path><path d="M271.52,124.77v6.49a.63.63,0,0,1-.62.61.6.6,0,0,1-.6-.61v-4.63l-1.59,2.2a.58.58,0,0,1-.49.26h0a.62.62,0,0,1-.51-.26l-1.57-2.2v4.63a.62.62,0,0,1-.62.61.61.61,0,0,1-.6-.61v-6.49a.6.6,0,0,1,.6-.6h0a.61.61,0,0,1,.48.25l2.19,3,2.19-3a.61.61,0,0,1,.49-.25h0A.63.63,0,0,1,271.52,124.77Z" style="fill:#fff"></path><path d="M276.21,128.88h-1.35v2.38a.62.62,0,0,1-.62.61.61.61,0,0,1-.6-.61v-6.49a.6.6,0,0,1,.6-.6h2a2.36,2.36,0,1,1,0,4.71Zm-1.35-1.22h1.35a1.14,1.14,0,1,0,0-2.27h-1.35Z" style="fill:#fff"></path><path d="M285.51,129.82a.61.61,0,0,1-.61.61h-.11v.83a.61.61,0,0,1-.61.61.6.6,0,0,1-.6-.61v-.83h-3.47a.53.53,0,0,1-.37-.13.59.59,0,0,1-.1-.85l4.07-5.06s0,0,0,0l0-.05a.1.1,0,0,0,.06,0l0,0s0,0,.07,0,0,0,0,0l.07,0h.28l.07,0h0l.06.05.05,0h0s0,0,0,0l0,.05s0,0,0,0l0,0a.08.08,0,0,0,0,.05.31.31,0,0,1,0,.07s0,0,0,0,0,0,0,.07,0,0,0,0v4.48h.11A.6.6,0,0,1,285.51,129.82Zm-1.93-3.32-2.19,2.72h2.19Z" style="fill:#fff"></path><polygon points="394.48 140.77 346.69 140.77 346.69 78.34 382.72 78.34 394.48 90.1 394.48 140.77" style="fill:#455a64"></polygon><polygon points="394.48 90.1 382.72 90.1 382.72 78.34 394.48 90.1" style="fill:#37474f"></polygon><rect x="355.26" y="95.82" width="30.64" height="21.5" style="fill:#263238"></rect><polygon points="365.82 101.67 365.82 111.47 377.01 106.57 365.82 101.67" style="fill:#fff"></polygon><rect x="356.77" y="97.32" width="1.67" height="1.15" style="fill:#fff"></rect><rect x="356.77" y="99.8" width="1.67" height="1.15" style="fill:#fff"></rect><rect x="356.77" y="102.28" width="1.67" height="1.15" style="fill:#fff"></rect><rect x="356.77" y="104.76" width="1.67" height="1.15" style="fill:#fff"></rect><rect x="356.77" y="107.23" width="1.67" height="1.15" style="fill:#fff"></rect><rect x="356.77" y="109.71" width="1.67" height="1.15" style="fill:#fff"></rect><rect x="356.77" y="112.19" width="1.67" height="1.15" style="fill:#fff"></rect><rect x="356.77" y="114.67" width="1.67" height="1.15" style="fill:#fff"></rect><rect x="382.73" y="97.32" width="1.67" height="1.15" style="fill:#fff"></rect><rect x="382.73" y="99.8" width="1.67" height="1.15" style="fill:#fff"></rect><rect x="382.73" y="102.28" width="1.67" height="1.15" style="fill:#fff"></rect><rect x="382.73" y="104.76" width="1.67" height="1.15" style="fill:#fff"></rect><rect x="382.73" y="107.23" width="1.67" height="1.15" style="fill:#fff"></rect><rect x="382.73" y="109.71" width="1.67" height="1.15" style="fill:#fff"></rect><rect x="382.73" y="112.19" width="1.67" height="1.15" style="fill:#fff"></rect><rect x="382.73" y="114.67" width="1.67" height="1.15" style="fill:#fff"></rect><rect x="335.08" y="120.94" width="34.33" height="14.21" style="fill:#263238"></rect><path d="M342.1,130.31a.82.82,0,1,1,0,1.64.82.82,0,0,1,0-1.64Z" style="fill:#fff"></path><path d="M344.06,131.26v-6.49a.6.6,0,0,1,.61-.6h3.59a.62.62,0,0,1,.61.6.63.63,0,0,1-.61.62h-3v2h2.57a.62.62,0,0,1,.6.61.6.6,0,0,1-.6.61h-2.57v2.64a.61.61,0,1,1-1.22,0Z" style="fill:#fff"></path><path d="M350.72,131.26v-6.49a.61.61,0,0,1,1.22,0v5.88h3a.62.62,0,0,1,.61.61.63.63,0,0,1-.61.61h-3.59A.61.61,0,0,1,350.72,131.26Z" style="fill:#fff"></path><path d="M358.16,131.76l-.08-.06s0,0,0,0a.18.18,0,0,1-.05-.07h0l-.06-.08-2.69-6.43a.58.58,0,0,1,.33-.78.59.59,0,0,1,.78.32l2.14,5.09,2.15-5.09a.61.61,0,0,1,1.12.46l-2.72,6.43a.3.3,0,0,1,0,.08h0s-.05.05-.06.07l0,0a.34.34,0,0,1-.06.06h0l-.08.06h0l-.08,0h-.27l-.09,0h0l-.1-.07Z" style="fill:#fff"></path><polygon points="160.92 223.05 113.13 223.05 113.13 160.63 149.16 160.63 160.92 172.39 160.92 223.05" style="fill:#455a64"></polygon><polygon points="160.92 172.39 149.16 172.39 149.16 160.63 160.92 172.39" style="fill:#37474f"></polygon><rect x="121.7" y="178.1" width="30.64" height="21.5" style="fill:#263238"></rect><polygon points="132.26 183.95 132.26 193.75 143.45 188.85 132.26 183.95" style="fill:#fff"></polygon><rect x="123.21" y="179.61" width="1.67" height="1.15" style="fill:#fff"></rect><rect x="123.21" y="182.09" width="1.67" height="1.15" style="fill:#fff"></rect><rect x="123.21" y="184.56" width="1.67" height="1.15" style="fill:#fff"></rect><rect x="123.21" y="187.04" width="1.67" height="1.15" style="fill:#fff"></rect><rect x="123.21" y="189.52" width="1.67" height="1.15" style="fill:#fff"></rect><rect x="123.21" y="192" width="1.67" height="1.15" style="fill:#fff"></rect><rect x="123.21" y="194.48" width="1.67" height="1.15" style="fill:#fff"></rect><rect x="123.21" y="196.95" width="1.67" height="1.15" style="fill:#fff"></rect><rect x="149.17" y="179.61" width="1.67" height="1.15" style="fill:#fff"></rect><rect x="149.17" y="182.09" width="1.67" height="1.15" style="fill:#fff"></rect><rect x="149.17" y="184.56" width="1.67" height="1.15" style="fill:#fff"></rect><rect x="149.17" y="187.04" width="1.67" height="1.15" style="fill:#fff"></rect><rect x="149.17" y="189.52" width="1.67" height="1.15" style="fill:#fff"></rect><rect x="149.17" y="192" width="1.67" height="1.15" style="fill:#fff"></rect><rect x="149.17" y="194.48" width="1.67" height="1.15" style="fill:#fff"></rect><rect x="149.17" y="196.95" width="1.67" height="1.15" style="fill:#fff"></rect><rect x="101.52" y="203.22" width="34.33" height="14.21" style="fill:#263238"></rect><path d="M105.92,212.59a.83.83,0,0,1,.82.83.82.82,0,0,1-1.64,0A.83.83,0,0,1,105.92,212.59Z" style="fill:#fff"></path><path d="M114.5,207.06v6.49a.61.61,0,0,1-.61.6.6.6,0,0,1-.61-.6v-4.63l-1.58,2.2a.62.62,0,0,1-.5.25h0a.63.63,0,0,1-.51-.25l-1.57-2.2v4.63a.61.61,0,0,1-.62.6.6.6,0,0,1-.6-.6v-6.49a.61.61,0,0,1,.6-.61h0a.59.59,0,0,1,.48.26l2.19,3,2.19-3a.59.59,0,0,1,.49-.26h0A.63.63,0,0,1,114.5,207.06Z" style="fill:#fff"></path><path d="M117.17,213.55v-6.44a.61.61,0,0,1,1.21,0v3.16l3.56-3.57a.59.59,0,0,1,.86,0,.61.61,0,0,1,0,.85L120.38,210l2.44,3.2a.59.59,0,0,1-.08.85.57.57,0,0,1-.39.14.58.58,0,0,1-.45-.22l-2.38-3.11L118.38,212v1.56a.61.61,0,0,1-1.21,0Z" style="fill:#fff"></path><path d="M127.22,214l-.08,0s0,0,0,0l-.06-.07h0a.41.41,0,0,0,0-.09l-2.7-6.42a.6.6,0,0,1,1.11-.47l2.15,5.1,2.14-5.1a.61.61,0,0,1,1.13.47l-2.72,6.42a.36.36,0,0,1,0,.09h0s0,0-.05.07l0,0-.07,0,0,0-.09.05h0l-.09,0h-.26l-.09,0h0l-.1-.07Z" style="fill:#fff"></path><polygon points="238.77 223.05 190.98 223.05 190.98 160.63 227.01 160.63 238.77 172.39 238.77 223.05" style="fill:#296882"></polygon><polygon points="238.77 223.05 190.98 223.05 190.98 160.63 227.01 160.63 238.77 172.39 238.77 223.05" style="fill:#fff;opacity:0.6000000000000001"></polygon><polygon points="238.77 172.39 227.01 172.39 227.01 160.63 238.77 172.39" style="fill:#296882"></polygon><rect x="199.56" y="178.1" width="30.64" height="21.5" style="fill:#296882"></rect><polygon points="210.12 183.95 210.12 193.75 221.3 188.85 210.12 183.95" style="fill:#fff"></polygon><rect x="201.06" y="179.61" width="1.67" height="1.15" style="fill:#fff"></rect><rect x="201.06" y="182.09" width="1.67" height="1.15" style="fill:#fff"></rect><rect x="201.06" y="184.56" width="1.67" height="1.15" style="fill:#fff"></rect><rect x="201.06" y="187.04" width="1.67" height="1.15" style="fill:#fff"></rect><rect x="201.06" y="189.52" width="1.67" height="1.15" style="fill:#fff"></rect><rect x="201.06" y="192" width="1.67" height="1.15" style="fill:#fff"></rect><rect x="201.06" y="194.48" width="1.67" height="1.15" style="fill:#fff"></rect><rect x="201.06" y="196.95" width="1.67" height="1.15" style="fill:#fff"></rect><rect x="227.02" y="179.61" width="1.67" height="1.15" style="fill:#fff"></rect><rect x="227.02" y="182.09" width="1.67" height="1.15" style="fill:#fff"></rect><rect x="227.02" y="184.56" width="1.67" height="1.15" style="fill:#fff"></rect><rect x="227.02" y="187.04" width="1.67" height="1.15" style="fill:#fff"></rect><rect x="227.02" y="189.52" width="1.67" height="1.15" style="fill:#fff"></rect><rect x="227.02" y="192" width="1.67" height="1.15" style="fill:#fff"></rect><rect x="227.02" y="194.48" width="1.67" height="1.15" style="fill:#fff"></rect><rect x="227.02" y="196.95" width="1.67" height="1.15" style="fill:#fff"></rect><rect x="179.37" y="203.22" width="34.33" height="14.21" style="fill:#455a64"></rect><path d="M185.31,212.59a.83.83,0,0,1,.83.83.82.82,0,0,1-.83.81.81.81,0,0,1-.81-.81A.82.82,0,0,1,185.31,212.59Z" style="fill:#fff"></path><path d="M188.46,214l-.08,0s0,0,0,0l-.05-.07h0l-.06-.09-2.69-6.42a.6.6,0,0,1,1.11-.47l2.14,5.1,2.15-5.1a.61.61,0,0,1,1.12.47l-2.72,6.42a.36.36,0,0,1,0,.09h0s-.05,0-.06.07l0,0-.06,0,0,0-.08.05h0l-.08,0h-.27l-.09,0h0l-.1-.07Z" style="fill:#fff"></path><path d="M199.84,207.41a4,4,0,0,1,0,5.57,3.62,3.62,0,0,1-2.63,1.17,3.72,3.72,0,0,1-2.69-1.17,4.1,4.1,0,0,1,0-5.57,3.66,3.66,0,0,1,2.69-1.18A3.56,3.56,0,0,1,199.84,207.41Zm-.14,2.78a2.85,2.85,0,0,0-.75-1.92,2.38,2.38,0,0,0-3.52,0,2.83,2.83,0,0,0,0,3.84,2.36,2.36,0,0,0,3.52,0A2.83,2.83,0,0,0,199.7,210.19Z" style="fill:#fff"></path><path d="M202.74,213.55v-6.49a.61.61,0,0,1,.6-.61h1.57a2.09,2.09,0,0,1,1.67,3.35,2.35,2.35,0,0,1-1.24,4.35h-2a0,0,0,0,1,0,0h0A.61.61,0,0,1,202.74,213.55Zm1.22-4.12h.95a.88.88,0,0,0,.87-.89.87.87,0,0,0-.87-.87H204Zm0,3.5h1.38a1.14,1.14,0,0,0,0-2.27H204Z" style="fill:#fff"></path><polygon points="316.63 223.05 268.83 223.05 268.83 160.63 304.87 160.63 316.63 172.39 316.63 223.05" style="fill:#455a64"></polygon><polygon points="316.63 172.39 304.87 172.39 304.87 160.63 316.63 172.39" style="fill:#37474f"></polygon><rect x="277.41" y="178.1" width="30.64" height="21.5" style="fill:#263238"></rect><polygon points="287.97 183.95 287.97 193.75 299.16 188.85 287.97 183.95" style="fill:#fff"></polygon><rect x="278.92" y="179.61" width="1.67" height="1.15" style="fill:#fff"></rect><rect x="278.92" y="182.09" width="1.67" height="1.15" style="fill:#fff"></rect><rect x="278.92" y="184.56" width="1.67" height="1.15" style="fill:#fff"></rect><rect x="278.92" y="187.04" width="1.67" height="1.15" style="fill:#fff"></rect><rect x="278.92" y="189.52" width="1.67" height="1.15" style="fill:#fff"></rect><rect x="278.92" y="192" width="1.67" height="1.15" style="fill:#fff"></rect><rect x="278.92" y="194.48" width="1.67" height="1.15" style="fill:#fff"></rect><rect x="278.92" y="196.95" width="1.67" height="1.15" style="fill:#fff"></rect><rect x="304.88" y="179.61" width="1.67" height="1.15" style="fill:#fff"></rect><rect x="304.88" y="182.09" width="1.67" height="1.15" style="fill:#fff"></rect><rect x="304.88" y="184.56" width="1.67" height="1.15" style="fill:#fff"></rect><rect x="304.88" y="187.04" width="1.67" height="1.15" style="fill:#fff"></rect><rect x="304.88" y="189.52" width="1.67" height="1.15" style="fill:#fff"></rect><rect x="304.88" y="192" width="1.67" height="1.15" style="fill:#fff"></rect><rect x="304.88" y="194.48" width="1.67" height="1.15" style="fill:#fff"></rect><rect x="304.88" y="196.95" width="1.67" height="1.15" style="fill:#fff"></rect><rect x="257.23" y="203.22" width="34.33" height="14.21" style="fill:#263238"></rect><path d="M259.88,212.59a.84.84,0,0,1,.83.83.82.82,0,0,1-.83.81.81.81,0,0,1-.81-.81A.82.82,0,0,1,259.88,212.59Z" style="fill:#fff"></path><path d="M270.89,207.37l-2.7,6.41a.31.31,0,0,1-.05.1h0l-.05.07s0,0,0,0l-.08,0h0a.18.18,0,0,1-.1.07h0l-.09,0h-.26l-.08,0h0a.15.15,0,0,1-.1-.07h0l-.08,0,0,0a.43.43,0,0,0,0-.07h0a.3.3,0,0,1,0-.1l-1.44-3.41-1.44,3.41a.93.93,0,0,1-.05.1h0l-.06.07s0,0,0,0l-.06,0h0l-.09.07h0a.17.17,0,0,0-.09,0h-.28l-.07,0h0a.2.2,0,0,1-.09-.07h0s0,0-.07,0l0,0-.06-.07h0s0-.07-.05-.1l-2.71-6.41a.59.59,0,0,1,.33-.78.58.58,0,0,1,.78.31l2.16,5.1,1.42-3.38a.61.61,0,0,1,.57-.37.63.63,0,0,1,.57.37l1.42,3.38,2.14-5.1a.62.62,0,0,1,.81-.31A.59.59,0,0,1,270.89,207.37Z" style="fill:#fff"></path><path d="M279.5,207.06v6.49a.62.62,0,0,1-.62.6.6.6,0,0,1-.61-.6v-4.63l-1.58,2.2a.61.61,0,0,1-.49.25h0a.63.63,0,0,1-.5-.25l-1.58-2.2v4.63a.6.6,0,0,1-.61.6.61.61,0,0,1-.61-.6v-6.49a.62.62,0,0,1,.61-.61h0a.61.61,0,0,1,.49.26l2.18,3,2.19-3a.6.6,0,0,1,.5-.26h0A.63.63,0,0,1,279.5,207.06Z" style="fill:#fff"></path><path d="M284.67,214l-.08,0s0,0,0,0l-.05-.07h0a.47.47,0,0,0-.06-.09l-2.69-6.42a.58.58,0,0,1,.33-.78.59.59,0,0,1,.78.31L285,212l2.15-5.1a.61.61,0,0,1,1.12.47l-2.72,6.42a.36.36,0,0,1,0,.09h0s0,0-.06.07l0,0-.06,0,0,0-.08.05h0l-.08,0h-.27l-.09,0h0l-.1-.07Z" style="fill:#fff"></path><polygon points="394.48 223.05 346.69 223.05 346.69 160.63 382.72 160.63 394.48 172.39 394.48 223.05" style="fill:#296882"></polygon><polygon points="394.48 223.05 346.69 223.05 346.69 160.63 382.72 160.63 394.48 172.39 394.48 223.05" style="fill:#fff;opacity:0.6000000000000001"></polygon><polygon points="394.48 172.39 382.72 172.39 382.72 160.63 394.48 172.39" style="fill:#296882"></polygon><rect x="355.26" y="178.1" width="30.64" height="21.5" style="fill:#296882"></rect><polygon points="365.82 183.95 365.82 193.75 377.01 188.85 365.82 183.95" style="fill:#fff"></polygon><rect x="356.77" y="179.61" width="1.67" height="1.15" style="fill:#fff"></rect><rect x="356.77" y="182.09" width="1.67" height="1.15" style="fill:#fff"></rect><rect x="356.77" y="184.56" width="1.67" height="1.15" style="fill:#fff"></rect><rect x="356.77" y="187.04" width="1.67" height="1.15" style="fill:#fff"></rect><rect x="356.77" y="189.52" width="1.67" height="1.15" style="fill:#fff"></rect><rect x="356.77" y="192" width="1.67" height="1.15" style="fill:#fff"></rect><rect x="356.77" y="194.48" width="1.67" height="1.15" style="fill:#fff"></rect><rect x="356.77" y="196.95" width="1.67" height="1.15" style="fill:#fff"></rect><rect x="382.73" y="179.61" width="1.67" height="1.15" style="fill:#fff"></rect><rect x="382.73" y="182.09" width="1.67" height="1.15" style="fill:#fff"></rect><rect x="382.73" y="184.56" width="1.67" height="1.15" style="fill:#fff"></rect><rect x="382.73" y="187.04" width="1.67" height="1.15" style="fill:#fff"></rect><rect x="382.73" y="189.52" width="1.67" height="1.15" style="fill:#fff"></rect><rect x="382.73" y="192" width="1.67" height="1.15" style="fill:#fff"></rect><rect x="382.73" y="194.48" width="1.67" height="1.15" style="fill:#fff"></rect><rect x="382.73" y="196.95" width="1.67" height="1.15" style="fill:#fff"></rect><rect x="335.08" y="203.22" width="34.33" height="14.21" style="fill:#455a64"></rect><path d="M339.1,212.59a.83.83,0,0,1,.82.83.82.82,0,0,1-1.64,0A.83.83,0,0,1,339.1,212.59Z" style="fill:#fff"></path><path d="M340.81,212.24a.58.58,0,0,1,.81-.08,3.56,3.56,0,0,0,2.1.85,2.3,2.3,0,0,0,1.37-.41,1,1,0,0,0,.48-.79.68.68,0,0,0-.1-.35,1.14,1.14,0,0,0-.33-.33,4.37,4.37,0,0,0-1.51-.52h0a5.9,5.9,0,0,1-1.42-.43,2.32,2.32,0,0,1-1-.86,1.63,1.63,0,0,1-.26-.9,2,2,0,0,1,.88-1.6,3.23,3.23,0,0,1,1.91-.59,4.32,4.32,0,0,1,2.39.88.57.57,0,0,1,.16.78.55.55,0,0,1-.78.17,3.21,3.21,0,0,0-1.77-.7,2.12,2.12,0,0,0-1.24.37.88.88,0,0,0-.41.69.59.59,0,0,0,.07.31,1.19,1.19,0,0,0,.3.29,4,4,0,0,0,1.38.48h0a6.46,6.46,0,0,1,1.52.46,2.61,2.61,0,0,1,1.1.92,1.8,1.8,0,0,1,.26.93,2.14,2.14,0,0,1-.95,1.71,3.47,3.47,0,0,1-2,.62,4.72,4.72,0,0,1-2.82-1.1A.59.59,0,0,1,340.81,212.24Z" style="fill:#fff"></path><path d="M358.27,207.37l-2.7,6.41a.31.31,0,0,1-.05.1h0l-.06.07s0,0,0,0l-.08,0h0a.18.18,0,0,1-.1.07h0l-.09,0h-.26l-.08,0h0a.18.18,0,0,1-.1-.07h0l-.08,0,0,0a.43.43,0,0,0,0-.07h0a.3.3,0,0,1,0-.1L353,210.37l-1.44,3.41a.93.93,0,0,1-.05.1h0l-.06.07s0,0,0,0a.18.18,0,0,0-.07,0h0l-.09.07h0a.17.17,0,0,0-.09,0h-.28l-.07,0h0a.18.18,0,0,1-.1-.07h0l-.08,0,0,0-.06-.07h0s0-.07,0-.1l-2.71-6.41a.59.59,0,0,1,.33-.78.58.58,0,0,1,.78.31L351,212l1.42-3.38a.61.61,0,0,1,.57-.37.63.63,0,0,1,.57.37L355,212l2.15-5.1a.6.6,0,0,1,.8-.31A.59.59,0,0,1,358.27,207.37Z" style="fill:#fff"></path><path d="M360.25,213.55v-6.49a.61.61,0,0,1,.61-.61h3.6a.62.62,0,0,1,.6.61.61.61,0,0,1-.6.61h-3v2H364a.61.61,0,0,1,0,1.22h-2.57v2.64a.61.61,0,0,1-1.22,0Z" style="fill:#fff"></path></g><g id="freepik--Cursor--inject-32"><polygon points="247.95 158.43 251.5 167 247.95 168.47 244.38 159.84 238.52 164.39 238.52 140.24 255.43 157.32 247.95 158.43" style="fill:#263238"></polygon><path d="M238.52,137.6a3.18,3.18,0,0,1-.21-1.21,3.22,3.22,0,0,1,.21-1.21,3.23,3.23,0,0,1,.22,1.21A3.2,3.2,0,0,1,238.52,137.6Z" style="fill:#263238"></path><path d="M236.43,138.47a3.18,3.18,0,0,1-1-.71,3,3,0,0,1-.7-1,3.34,3.34,0,0,1,1,.71A3.15,3.15,0,0,1,236.43,138.47Z" style="fill:#263238"></path><path d="M235.57,140.56a3.28,3.28,0,0,1-1.22.22,3.23,3.23,0,0,1-1.21-.22,3,3,0,0,1,1.21-.21A3.27,3.27,0,0,1,235.57,140.56Z" style="fill:#263238"></path><path d="M236.43,142.65a3.52,3.52,0,0,1-1.71,1.72,3,3,0,0,1,.7-1A3.34,3.34,0,0,1,236.43,142.65Z" style="fill:#263238"></path><path d="M241.48,140.56a3.27,3.27,0,0,1,1.22-.21,3,3,0,0,1,1.21.21,3.23,3.23,0,0,1-1.21.22A3.28,3.28,0,0,1,241.48,140.56Z" style="fill:#263238"></path><path d="M240.62,138.47a3.15,3.15,0,0,1,.7-1,3.34,3.34,0,0,1,1-.71,3,3,0,0,1-.7,1A3.29,3.29,0,0,1,240.62,138.47Z" style="fill:#263238"></path></g><g id="freepik--Plant--inject-32"><path d="M111,342c-12.44,16.85-25.41,36.4-28.57,57.53a.28.28,0,0,0,.55.11,124.71,124.71,0,0,1,5.5-16.92c8.18-2.25,16.21-4.1,20.5-12.22,4.38-8.34,3.82-19.22,3-28.31C111.89,341.65,111.23,341.63,111,342Z" style="fill:#296882"></path><path d="M88.58,382.51c5.59-12.54,12.77-25.13,21.89-35.45.06-.06.15,0,.1.11-6,7.34-10.51,15.34-14.94,23.48,4.12-4.18,8.63-7.93,12.53-12.36.08-.09.2,0,.13.12-3.88,4.65-8.11,9.7-13.15,13.14-1.36,2.5-2.72,5-4.11,7.51.34-.19.69-.36,1-.53.06,0,.11.06.05.09-.38.2-.76.4-1.16.57-.66,1.18-1.31,2.37-2,3.55C88.83,383,88.46,382.78,88.58,382.51Z" style="fill:#263238"></path><path d="M92.74,378.14a74.54,74.54,0,0,0,9.55-6.38c.08-.07.2.05.12.12a51,51,0,0,1-9.53,6.49C92.72,378.45,92.59,378.22,92.74,378.14Z" style="fill:#263238"></path><path d="M81,396.34c0,.25.46.25.46,0,.06-7,0-13.95.11-20.94,1.78-3.6,5.6-5.59,8.26-8.47a37.41,37.41,0,0,0,5-6.91,49.57,49.57,0,0,0,5.75-19.19c.74-7.45-2.09-32-5.22-31.15-1.63.44-6.89,12.6-8.29,16.62a115.48,115.48,0,0,0-5,20.39C79.51,363.05,79.73,379.86,81,396.34Z" style="fill:#296882"></path><path d="M80.92,366.32l0,0c.38-8.81,2.37-17.7,4.22-26.24,2-9.2,4.34-17.86,9.08-26.06.08-.16.31,0,.23.13a97.36,97.36,0,0,0-7.29,20c.32-.49.7-1,1-1.43.13-.19.44,0,.31.18A12.25,12.25,0,0,1,87.05,335L87,335c-1.63,6.58-2.8,13.3-3.8,20l.22-.26c0-.05.14,0,.1.08-.12.22-.26.44-.39.67-.51,3.4-1,6.8-1.45,10.17,6.07-5.18,11.24-11.29,14.17-18.82,0,0,.07,0,0,0-2.86,7.8-7.37,14.74-14.31,19.48l-.39,2.72c0,.19-.32.14-.32,0,0-.81,0-1.61.07-2.41A.2.2,0,0,1,80.92,366.32Z" style="fill:#263238"></path><path d="M83.78,353.57c4.63-6.92,9-13.63,12.35-21.28,0-.08.18,0,.15.07C93.42,340,89.42,347.65,84,353.75,83.9,353.87,83.68,353.71,83.78,353.57Z" style="fill:#263238"></path><path d="M89.93,330.58c1.92-3.39,3.95-6.7,5.75-10.16,0-.1.19,0,.15.08a53.15,53.15,0,0,1-5.6,10.26A.18.18,0,0,1,89.93,330.58Z" style="fill:#263238"></path><path d="M89.18,332.06a0,0,0,0,1,0,.06S89.15,332.06,89.18,332.06Z" style="fill:#263238"></path><path d="M76.26,376.22a71.51,71.51,0,0,1-1.62,13.7c.07.5.14,1,.21,1.51a65.66,65.66,0,0,0,2.45-15.28.48.48,0,0,0,0-.48h0A100.7,100.7,0,0,0,75.79,355C73.63,342.17,68.93,329.9,60,320.31a.65.65,0,0,0-1,.2c-3.6,9.15-2.34,20.07.72,29.2a53.29,53.29,0,0,0,7.08,13.87C69.88,367.88,73.78,371.52,76.26,376.22Z" style="fill:#296882"></path><path d="M61.06,324.59c8.45,13.72,14.33,30,15,46.19,0,.28-.47.36-.51.07-.2-1.46-.42-2.9-.65-4.34h0c-3.49-3.34-7.08-6.88-9.59-11.06,0-.08.06-.16.12-.1a116.27,116.27,0,0,0,9.32,10.14c-.61-3.58-1.32-7.11-2.17-10.58l-.67-.78c-.15-.18.1-.43.25-.26l.2.23a122.73,122.73,0,0,0-4.42-14c-2.15-2.57-4.55-4.78-6.12-7.88a.06.06,0,0,1,.11-.06c1.26,1.77,2.48,3.54,3.91,5.19.57.65,1.19,1.26,1.78,1.9a108.7,108.7,0,0,0-6.91-14.43C60.61,324.57,60.93,324.39,61.06,324.59Z" style="fill:#263238"></path><path d="M62.77,341.51c2.73,3.68,5.85,7.19,8.38,11,.08.11-.08.22-.17.13-3.26-3.06-6-7.24-8.39-11C62.51,341.5,62.69,341.41,62.77,341.51Z" style="fill:#263238"></path><path d="M71.54,353.35l.11.12a.08.08,0,1,1-.12.12l-.12-.11A.09.09,0,0,1,71.54,353.35Z" style="fill:#263238"></path><path d="M47.82,351a42.09,42.09,0,0,0,8.92,20.93A22.23,22.23,0,0,0,64,377.53c3.13,1.55,6.41,3.34,9.65,4.61A62.66,62.66,0,0,1,77,394.28c.11-.36.21-.72.31-1.08-2.08-17.87-13.64-33.14-28.43-42.94A.72.72,0,0,0,47.82,351Z" style="fill:#296882"></path><path d="M52.93,356.24c-.1-.09,0-.28.15-.19a60.39,60.39,0,0,1,18.84,23.22c.11.24-.22.46-.36.22-.69-1.21-1.39-2.38-2.1-3.53h0c-3.38-.64-6.58-3-9.08-5.27-.07-.06,0-.16.1-.1a20.42,20.42,0,0,0,4.27,3c1.38.7,2.86,1.14,4.29,1.7q-1.87-3-3.92-5.73A39.27,39.27,0,0,1,55,363.85c-.1-.07,0-.23.09-.16a103.08,103.08,0,0,0,9.43,5A83.88,83.88,0,0,0,57.84,361c-1.15-.61-2.32-1.22-3.43-1.86a.1.1,0,0,1,.08-.18,12.73,12.73,0,0,1,2.62,1.29C55.78,358.87,54.4,357.54,52.93,356.24Z" style="fill:#263238"></path><path d="M53.24,362.41a3.93,3.93,0,0,1,.57.41c.06,0,0,.11-.07.09a3.91,3.91,0,0,1-.59-.34C53.05,362.51,53.14,362.34,53.24,362.41Z" style="fill:#263238"></path><polygon points="100.43 432.97 59.91 432.97 63.18 396.06 63.9 387.93 96.44 387.93 97.16 396.06 100.43 432.97" style="fill:#455a64"></polygon><polygon points="97.16 396.06 63.18 396.06 63.9 387.93 96.44 387.93 97.16 396.06" style="fill:#263238"></polygon><rect x="61.96" y="382.24" width="36.42" height="8.05" style="fill:#455a64"></rect></g><g id="freepik--Table--inject-32"><polygon points="44.35 432.97 95.76 432.73 147.18 432.64 250 432.47 352.82 432.64 404.24 432.73 455.65 432.97 404.24 433.21 352.82 433.3 250 433.47 147.18 433.3 95.76 433.21 44.35 432.97" style="fill:#263238"></polygon></g><g id="freepik--Character--inject-32"><polygon points="454.77 432.92 334.24 432.92 358.27 293.11 448.41 293.11 454.77 432.92" style="fill:#455a64"></polygon><polygon points="454.77 432.92 444.21 432.92 438.27 293.11 448.41 293.11 454.77 432.92" style="fill:#37474f"></polygon><path d="M320.52,215.8s8.46-11.15,21.13-12.61,23.43,2.69,34.42,12.94,5,29.54,7.45,37.77,14,17.28,14.75,35.4-16.35,25.81-21.47,32.81c-6.15,8.42-7,22-24.69,26.49-16.49,4.16-26.67-5-37-1A27.09,27.09,0,0,0,300.9,360s-5.06-16.51.41-27.26,8.93-11.41,8.57-19.32c-.33-7-8.79-12.63-8.15-24.94.74-14.25,7.39-18.28,8.18-26.5C310.72,253.46,301.07,223.51,320.52,215.8Z" style="fill:#263238"></path><path d="M301,289.93c1.11-10,9.43-18,9-28.13a0,0,0,0,0-.05,0c-.73,10.6-9.4,18.54-10.12,29.29a21.15,21.15,0,0,0,3.13,12.72c3.43,5.62,8.44,10.29,8.45,17.34,0,.22.34.19.35,0,.21-4.92-2-8.93-4.69-12.91C303.17,302.47,300.16,297.1,301,289.93Z" style="fill:#263238"></path><path d="M384.9,244.42c.51-5.7,1.65-11.29-.09-16.91-3.34-10.76-13.51-17-23.17-21.36h0c10.69,5.83,22.76,13.75,23.13,27.31.16,5.93-1.57,11.78-.82,17.72.64,5.08,2.82,9.95,5.26,14.4.07.13.29,0,.23-.11C386.1,258.61,384.22,252.14,384.9,244.42Z" style="fill:#263238"></path><path d="M380.56,317c-7.83,10.21-9.42,26.69-22.8,32.06-7.45,3-15.38,2.36-23,.36-5.93-1.57-11.82-3.59-18-2.74-.06,0-.06.12,0,.11,8-.78,14.83,2.64,22.4,4.32,6.54,1.46,13.92,1.19,20.06-1.72,13-6.14,13.85-22,21.35-32.36C380.61,317,380.58,316.93,380.56,317Z" style="fill:#263238"></path><path d="M362.17,310.4c-4.87,30.42-29.82,104.81-49.51,113.43-17.42,7.62-65.24,9.84-82.71,5.79-8-1.85-5-58.29,7.31-59.13,15.44-1.05,37.21.58,51-2.39,4.87-1.05,23.27-24,56.32-62.16C356.83,291.75,364.91,293.28,362.17,310.4Z" style="fill: rgb(211, 118, 106);"></path><path d="M253.37,426.85c-1,.5-15,7.56-23.7,10.07-6.47,1.88-25.25,6.78-28-.14-1.9-4.72,8.8-8.9,16.31-12,3.95-1.65,8.82-5.78,7.65-8.32-2-4.45-12.21,0-18.9,3.9-12.94,7.52-30.18,21.06-38.08,14.49-3-2.48.48-7,5.56-11.43-8.24,5.16-17,9.4-20.45,6.77-2-1.49-2.05-3.54-1-5.89-2.54.83-4.79.67-6.36-1-2.67-2.8-1.37-6.94,1.56-11.18a3.16,3.16,0,0,1-2.43-1.59c-5.67-8.65,22.7-33.46,32.52-35.78,28.87-6.87,59.58-4.37,59.58-4.37C249,379.43,253.39,426.83,253.37,426.85Z" style="fill: rgb(211, 118, 106);"></path><path d="M210.92,400.27a49.14,49.14,0,0,0-19.26,7.41c-7.32,4.83-12.18,10.49-18.32,16.18-.16.15.07.41.23.26,2.93-2.71,15.05-12.88,18.19-15.2a46.74,46.74,0,0,1,19.18-8.53C211,400.38,211,400.26,210.92,400.27Z" style="fill:#263238"></path><path d="M205.54,388c-7.59,2.08-15.37,4.17-22.41,7.76-7.71,3.93-13.74,10.33-19.67,16.5q-5.34,5.55-10.43,11.33c-.14.16.07.42.23.26q9-9.56,18.61-18.55a61.84,61.84,0,0,1,20.44-12.88c4.34-1.65,8.8-3,13.25-4.28C205.65,388.13,205.62,388,205.54,388Z" style="fill:#263238"></path><path d="M197.43,377.31c-7.37,1.51-13.8,2.81-20.33,6.76-8.64,5.23-17,14-19.91,17.16-3.24,3.45-6.35,7-9.41,10.61-.13.15.12.37.25.23a246.31,246.31,0,0,1,22.49-22.28,48.92,48.92,0,0,1,12.58-8.17,87.18,87.18,0,0,1,14.34-4.26S197.46,377.3,197.43,377.31Z" style="fill:#263238"></path><path d="M319.24,433.13l123.09-.31s-25.13-103.91-52.27-132.9c-12.35-13.2-24.42-11.18-34.65-2.69-2.55,2.12-34.19,42.27-36.87,56.27-2.37,12.37,7.69,26.1,7.69,26.1Z" style="fill:#296882"></path><path d="M319.4,350.5v15a30.17,30.17,0,0,1-.91-4.16c-.09-.53-.16-1.07-.2-1.61a22.17,22.17,0,0,1,.25-6.19,15.9,15.9,0,0,1,.5-1.94C319.15,351.22,319.27,350.86,319.4,350.5Zm0,82.63V431.9l-.16,1.23ZM327.53,335v98.07h1.61V332.51C328.59,333.36,328.06,334.2,327.53,335Zm9.74-14.48V433.08h1.61V318.31ZM347,307.45V433.06h1.61V305.37C348.1,306,347.56,306.73,347,307.45Zm9.74-11.28V433h1.61V295C357.82,295.37,357.28,295.76,356.75,296.17Zm9.74-5V433h1.61V290.78C367.56,290.87,367,291,366.49,291.14Zm9.74-.14V433h1.61V291.46C377.3,291.28,376.76,291.13,376.23,291Zm9.74,5.08V433h1.61V297.47C387,297,386.5,296.52,386,296.08ZM395.71,307V432.94h1.61V309.44C396.79,308.61,396.25,307.81,395.71,307Zm9.74,16.9v109h1.61V327.24C406.53,326.12,406,325,405.45,323.93Zm11.27,26c-.5-1.3-1-2.6-1.52-3.89v86.83h1.6V350Zm8.22,23v59.95h1.6v-55.1C426,376.16,425.48,374.54,424.94,372.91Zm10.89,35.48c-.37-1.31-.75-2.66-1.15-4v28.49h1.6V410ZM378,291.51H365.27a25.56,25.56,0,0,0-3.76,1.6h20.07A23.51,23.51,0,0,0,378,291.51Zm13.28,9.74H351.91l-1.3,1.6h42C392.15,302.3,391.71,301.77,391.26,301.25Zm7,9.74h-54l-1.19,1.6h56.19C399,312.05,398.63,311.51,398.3,311Zm5.53,9.74H337.15L336,322.34h68.64Zm4.74,9.74h-78.1c-.36.54-.71,1.08-1.05,1.61H409.3C409.06,331.54,408.81,331,408.57,330.47Zm4.25,9.74H324.43c-.32.55-.62,1.08-.91,1.61h90C413.27,341.28,413,340.74,412.82,340.21Zm4,10V350H319.4v.55c-.13.36-.25.72-.36,1.06h98.3Zm3.55,9.53H318.29c0,.54.11,1.08.2,1.61H420.93C420.74,360.76,420.54,360.22,420.35,359.69Zm3.41,9.74h-103c.22.55.44,1.09.67,1.61H424.31C424.13,370.5,424,370,423.76,369.43Zm3.24,9.74H325.92l.31.43-.15,1.18H427.52C427.35,380.25,427.17,379.71,427,379.17Zm3.08,9.74H325l-.21,1.61H430.57C430.41,390,430.24,389.45,430.08,388.91Zm2.94,9.74H323.74l-.21,1.61h110C433.34,399.73,433.18,399.19,433,398.65Zm2.81,9.74H322.47l-.21,1.61h114v0Zm2.7,9.75H321.2l-.21,1.6H439C438.82,419.22,438.67,418.69,438.53,418.14Zm2.56,9.74H319.93l-.21,1.6H441.5C441.38,429,441.24,428.46,441.09,427.88Z" style="opacity:0.1"></path><path d="M361.73,377.43a103.08,103.08,0,0,0-15.32.54c-2.52.31-5,.74-7.51,1.22-1.24.24-2.49.44-3.74.63a15.93,15.93,0,0,1-4,.23c-.11,0-.13.17,0,.18a27.63,27.63,0,0,0,3.73.41,26.14,26.14,0,0,0,3.64-.21c2.56-.29,5.11-.71,7.67-1,5.16-.65,10.32-1.29,15.52-1.56C362,377.84,362,377.43,361.73,377.43Z" style="fill:#263238"></path><path d="M373.64,383.5a114.23,114.23,0,0,0-12.45-2.21c-2.1-.24-4.2-.36-6.31-.43-1,0-2,0-3,0s-2.22.15-3.33.13c-.11,0-.14.17,0,.18,1.05.05,2.09.27,3.13.38l3.13.31c2.1.22,4.19.46,6.28.66,4.2.39,8.37.83,12.55,1.37C373.83,383.88,373.85,383.55,373.64,383.5Z" style="fill:#263238"></path><path d="M374.73,292.05c-.07,2.38-7.86,19.37-18.35,21-3.41.53-7.16-18-7.16-18l-.59-1.3-8.23-18.26,19.49-19.06,2.86-2.58s1.92,5.14,4.25,11.56c.11.3.22.6.33.92s.28.7.4,1c.36.95.72,1.93,1.06,2.91.27.75.53,1.47.78,2.27s.51,1.56.78,2.34C372.84,282.78,374.74,291,374.73,292.05Z" style="fill: rgb(211, 118, 106);"></path><path d="M367,265.46a40.18,40.18,0,0,1-18.37,28.34l-8.23-18.26,19.49-19.06,2.86-2.58S364.67,259,367,265.46Z" style="fill:#263238"></path><path d="M309,249.72c1.51,35.1,22.71,38.16,30.28,37.83,6.87-.3,30.23-2.21,32.36-37.28S357,204.8,341.25,204.66,307.53,214.61,309,249.72Z" style="fill: rgb(211, 118, 106);"></path><path d="M313.73,243.44a23.12,23.12,0,0,0,2.34-.65,4,4,0,0,0,2.26-1.12,1.28,1.28,0,0,0-.1-1.53,3.11,3.11,0,0,0-3.1-.52,4.55,4.55,0,0,0-2.75,1.79A1.34,1.34,0,0,0,313.73,243.44Z" style="fill:#263238"></path><path d="M337.77,241.8c-.82,0-1.58-.22-2.4-.34a4,4,0,0,1-2.38-.82,1.28,1.28,0,0,1-.1-1.53,3.1,3.1,0,0,1,3-.92,4.57,4.57,0,0,1,3,1.42A1.33,1.33,0,0,1,337.77,241.8Z" style="fill:#263238"></path><path d="M332.78,250.77c0-.09.19.1.19.2,0,2.4.46,5.13,2.65,5.84.07,0,.07.14,0,.13C333,256.68,332.42,253,332.78,250.77Z" style="fill:#263238"></path><path d="M334.81,248.18c3.83-.45,4.45,7.25.9,7.67S331.6,248.56,334.81,248.18Z" style="fill:#263238"></path><path d="M336.35,248.47c.71.38,1.43,1.1,2.25,1.11s1.59-.85,2.14-1.67c.06-.09.13,0,.14.08.14,1.47-.31,3-1.87,3.38s-2.57-.91-3.06-2.36C335.86,248.74,336.07,248.31,336.35,248.47Z" style="fill:#263238"></path><path d="M319.48,251.34c0-.09-.17.13-.16.23.28,2.37.21,5.14-1.87,6.12-.07,0-.05.15,0,.14C320.08,257.22,320.13,253.54,319.48,251.34Z" style="fill:#263238"></path><path d="M317.13,249c-3.86.05-3.47,7.76.1,7.72S320.37,249,317.13,249Z" style="fill:#263238"></path><path d="M315.55,249.63c-.59.43-1.16,1.21-1.88,1.29s-1.51-.71-2.09-1.48c-.06-.08-.11,0-.11.09,0,1.48.59,3,2,3.2s2.2-1.12,2.47-2.6C316,249.85,315.79,249.45,315.55,249.63Z" style="fill:#263238"></path><path d="M334.64,270.32c-.5.63-1,1.47-1.82,1.65a6.52,6.52,0,0,1-2.63-.27c-.08,0-.15.06-.09.13a3.24,3.24,0,0,0,3.18.91,2.56,2.56,0,0,0,1.6-2.34C334.9,270.26,334.71,270.23,334.64,270.32Z" style="fill:#263238"></path><path d="M324.06,262.38s-.25,3.6-.13,5.28c0,.16.42.21,1,.2,0,0,0,0,.06,0a8,8,0,0,0,7.56-3.52c.11-.17-.12-.33-.27-.22a12.09,12.09,0,0,1-7.15,2.6c-.15-.46.63-6.15.36-6.15a14.23,14.23,0,0,0-3.76,1.13c.3-7.52,1.79-14.92,2-22.4a.23.23,0,0,0-.45-.08c-2.12,7.65-2.65,16.28-3.15,24C320,264.22,323.41,262.72,324.06,262.38Z" style="fill:#263238"></path><path d="M362.86,248.67c-4.08-.33-8.36-8.73-8.81-14.66,0,0-20.76,2.93-28.68-15.57,0,0-6.32,15.28-15.46,15.12-2,0-1.77-14.53,5-21.52a21.9,21.9,0,0,1,16.43-6.31A37.18,37.18,0,0,1,362.67,208c14.52,8.2,16.81,40.94,8.43,50.44C369.26,260.5,362.86,248.67,362.86,248.67Z" style="fill:#263238"></path><path d="M348.68,235.12c-4.28-.29-10.72-1.43-14.25-4.15-3.28-2.53-7.05-8.85-8.43-12.65a.33.33,0,0,0-.63.12c.22,4.35,4.06,11.4,7.77,13.86s11.31,3.33,15.59,3.07C349,235.36,348.93,235.13,348.68,235.12Z" style="fill:#263238"></path><path d="M365.16,247.91c-9.36,2.34-11.05-8.71-11.58-15.26,0,0-.05,0-.05,0-.23,4.51-.26,9.45,2.71,13.18,2.19,2.74,5.76,4.18,9.12,2.8A.37.37,0,0,0,365.16,247.91Z" style="fill:#263238"></path><path d="M372.3,263.21a7.22,7.22,0,0,1-1.56.62,5.22,5.22,0,0,1-1.64.26,4.76,4.76,0,0,1-2.09-.39,5.52,5.52,0,0,1-1.45-.84,6.85,6.85,0,0,1-1.58-1.79l.72-9.56s6.2-11.86,11.47-9.79S377.82,260.3,372.3,263.21Z" style="fill: rgb(211, 118, 106);"></path><path d="M375,246.42c.09,0,.12.11.05.15-3.85,2.17-5.5,6.22-6.49,10.32,1-1.66,2.55-2.7,4.75-1.52.12.06,0,.24-.08.23a3.64,3.64,0,0,0-3.82,1.78,17,17,0,0,0-1.49,3.48c-.15.39-.83.28-.74-.16a.44.44,0,0,1,0-.1C366.44,255.44,369.52,247.66,375,246.42Z" style="fill:#263238"></path><path d="M367.86,287.79c-2.62,0-4-6.19-4-12.3,0-6.27,1.05-13.59,4-13.59v1c-1.47,0-3,4.71-3,12.59,0,7,1.74,11.3,3,11.3.06,0,.29-.11.63-.59,1.65-2.35,4-11.14.14-22l.94-.34c3.63,10.22,2,19.7-.27,22.9A1.92,1.92,0,0,1,367.86,287.79Z" style="fill:#296882"></path><path d="M354.24,296.32s-15.3,28.84-15.05,29.42,28.6,1.25,29,.84,10.92-34.64,10.92-34.64S371.45,286.1,354.24,296.32Z" style="fill: rgb(211, 118, 106);"></path><path d="M397.58,307.48c23.94,37.09,51.51,98.62,34.36,110.52-28.2,19.55-100.93,25.07-118.83,25.77-7.72.3-19-50.93-13.38-57s86.36-7.4,87.1-9.25c.66-1.66-1.05-25.26-6.58-56.24C373.88,285.58,390.73,296.87,397.58,307.48Z" style="fill: rgb(211, 118, 106);"></path><path d="M313.45,383.75s-23.42-2.07-38.8-2.7c-8.58-.36-23.35.35-29.77,3-9.61,3.93-47.28,26.47-42,35.73,4.77,8.37,34.68-15.11,34.68-15.11s-32.28,21-24.68,30.05,37.86-22,37.86-22S218.06,435,227.37,443.11c7,6.1,36-20.45,36-20.45s-27.95,19.4-21,26c7.7,7.27,36-15.56,36-15.56,20.52,13.75,35.91,11.91,46.71,9.29C327.72,441.75,313.45,383.75,313.45,383.75Z" style="fill: rgb(211, 118, 106);"></path><path d="M248.24,396.65c-3.88,2.33-7.82,4.67-11.48,7.34s-7.23,5.47-10.63,8.47c-8.32,7.35-12.39,13.26-12.09,12.92,6.87-8,19.82-17.74,23.48-20.41s7.18-5.52,10.83-8.18C248.44,396.72,248.33,396.6,248.24,396.65Z" style="fill:#263238"></path><path d="M258.12,409.69c-4.83,3.19-9.73,6.19-14.42,9.59s-8.79,7-13.21,10.72c-.34.29-.07.38.28.1,4.56-3.52,9-6.43,13.65-9.89s9.08-7.12,13.79-10.41C258.28,409.75,258.19,409.64,258.12,409.69Z" style="fill:#263238"></path><path d="M268.61,419.36c-7.62,4.5-14.41,10.4-20.92,16.35-.33.3,0,.38.38.09,6.85-5.57,12.19-10,20.7-16.18C268.9,419.52,268.77,419.26,268.61,419.36Z" style="fill:#263238"></path><path d="M202.87,419.75a4.29,4.29,0,0,1,0-3.84,15.28,15.28,0,0,1,1.94-3.46,45.73,45.73,0,0,1,5.23-6,116.75,116.75,0,0,1,12.26-10.05c4.27-3.09,8.59-6.13,13.13-8.87a47.44,47.44,0,0,1,7.14-3.64c1.26-.48,2.55-.86,3.79-1.25a27.52,27.52,0,0,1,3.9-1,98.56,98.56,0,0,1,15.87-1.16c5.28-.05,10.56.08,15.83.31s10.54.59,15.79,1.06,10.5,1,15.74,1.56h-.05c5.15-.26,10.31-.56,15.47-.78-5.14.52-10.29,1-15.43,1.42h-.05c-5.25-.4-10.5-.84-15.75-1.15s-10.51-.56-15.77-.79-10.51-.28-15.76-.19c-2.63,0-5.25.15-7.86.31a74.1,74.1,0,0,0-7.77.82,27.48,27.48,0,0,0-3.75.95c-1.27.38-2.51.74-3.71,1.19a45.11,45.11,0,0,0-7,3.48c-4.49,2.7-8.86,5.63-13.2,8.61A127.44,127.44,0,0,0,210.48,407a46.17,46.17,0,0,0-5.4,5.7,15.58,15.58,0,0,0-2,3.33A4.19,4.19,0,0,0,202.87,419.75Z" style="fill:#263238"></path></g><g id="freepik--Device--inject-32"><rect x="169.1" y="444.76" width="130.6" height="5.5" style="fill:#a6a6a6"></rect><polygon points="227.06 450.25 107.58 450.25 91.95 369.1 211.44 369.1 227.06 450.25" style="fill:#a6a6a6"></polygon><polygon points="222.2 450.25 102.72 450.25 87.09 369.1 206.58 369.1 222.2 450.25" style="fill:#dbdbdb"></polygon><path d="M161.92,409.68a6.56,6.56,0,0,1-6.64,7.27,8.1,8.1,0,0,1-7.91-7.27A6.56,6.56,0,0,1,154,402.4,8.1,8.1,0,0,1,161.92,409.68Z" style="fill:#fff"></path></g></svg>